<?xml version="1.0" standalone="no"?>
<!DOCTYPE svg PUBLIC "-//W3C//DTD SVG 20010904//EN"
 "http://www.w3.org/TR/2001/REC-SVG-20010904/DTD/svg10.dtd">
<svg version="1.0" xmlns="http://www.w3.org/2000/svg"
 width="763.000000pt" height="242.000000pt" viewBox="0 0 763.000000 242.000000"
 preserveAspectRatio="xMidYMid meet">
<metadata>
Created by potrace 1.15, written by Peter Selinger 2001-2017
</metadata>
<g transform="translate(0.000000,242.000000) scale(0.100000,-0.100000)"
fill="#000000" stroke="none">
<path d="M0 1210 l0 -1210 3815 0 3815 0 0 1210 0 1210 -3815 0 -3815 0 0
-1210z m7530 -5 l0 -1115 -3715 0 -3715 0 0 1115 0 1115 3715 0 3715 0 0
-1115z"/>
<path d="M660 1190 l0 -790 180 0 180 0 1 458 0 457 167 -332 167 -333 100 0
100 0 167 333 167 332 0 -457 1 -458 185 0 185 0 0 790 0 790 -200 0 -200 0
-202 -405 -203 -405 -202 405 -203 405 -195 0 -195 0 0 -790z"/>
<path d="M2750 1203 c-155 -428 -285 -784 -288 -791 -3 -9 39 -12 190 -12
l193 0 59 175 58 175 241 -2 241 -3 59 -172 60 -173 193 0 193 0 -37 103 c-20
57 -149 412 -287 790 l-250 687 -171 0 -170 0 -284 -777z m457 -191 c-94 -1
-172 0 -174 2 -3 3 34 123 83 268 l88 263 86 -265 86 -265 -169 -3z"/>
<path d="M4555 1957 c-227 -76 -404 -240 -491 -455 -53 -132 -69 -329 -40
-484 54 -283 245 -510 498 -592 81 -27 91 -28 259 -24 165 3 177 5 234 31 32
15 83 46 112 68 l53 40 0 -71 0 -70 155 0 155 0 0 415 0 415 -310 0 -310 0 0
-140 0 -140 155 0 c145 0 155 -1 155 -19 0 -30 -113 -126 -197 -168 -75 -37
-80 -38 -182 -38 -95 0 -112 3 -163 28 -159 78 -248 232 -248 432 0 159 42
267 142 366 76 77 143 103 258 102 140 0 258 -62 336 -175 l32 -47 133 100
c74 55 136 104 137 110 7 18 -50 101 -108 158 -69 68 -143 113 -242 149 -68
25 -86 27 -263 29 -176 3 -195 1 -260 -20z"/>
<path d="M5720 1815 l0 -165 385 0 c212 0 385 -2 385 -5 0 -3 -180 -221 -400
-485 l-400 -478 0 -141 0 -141 625 0 625 0 0 160 0 160 -390 0 -389 0 389 490
390 490 0 140 0 140 -610 0 -610 0 0 -165z"/>
</g>
</svg>
